# xmcd
#
# Track frame offsets:
#	150
#	21040
#	38630
#	60520
#	83020
#	105012
#	125575
#	147415
#	173307
#	188610
#	210950
#	230532
#	249482
#	269330
#
# Disc length: 3914 seconds
#
# Revision: 1
# Processed by: cddbd v1.5.2PL0 Copyright (c) Steve Scherf et al.
# Submitted via: audiograbber 1.83.01
#
DISCID=a50f480e
DTITLE=Various Artist - Night Grooves
DYEAR=2000
DGENRE=R&B
TTITLE0=R. Kelly - Your Body's Callin'
TTITLE1=Tyrese - Nobody Else
TTITLE2=Aaliyah - At Your Best (You Are Love)
TTITLE3=Joe - The Love Scene (Album Version)
TTITLE4=Deborah Cox - The Sound Of My Tears
TTITLE5=Brian McKnight - Anytime
TTITLE6=Monica - With You
TTITLE7=Dru Hill - 5 Steps
TTITLE8=Shanice - When I Close My Eyes
TTITLE9=Next - Butta Love
TTITLE10=SWV - Rain
TTITLE11=112 - Cupid
TTITLE12=Marc Dorsey - Crave
TTITLE13=Faith Evans - Soon As I Get Home
EXTD=
EXTT0=
EXTT1=
EXTT2=
EXTT3=
EXTT4=
EXTT5=
EXTT6=
EXTT7=
EXTT8=
EXTT9=
EXTT10=
EXTT11=
EXTT12=
EXTT13=
PLAYORDER=
